<?xml version="1.0" encoding="UTF-8"?>
<svg xmlns="http://www.w3.org/2000/svg" xmlns:xlink="http://www.w3.org/1999/xlink" width="100pt" height="100pt" viewBox="0 0 200 200" version="1.1">
<defs>
<linearGradient id="linear0" gradientUnits="userSpaceOnUse" x1="256" y1="514" x2="256" y2="2" gradientTransform="matrix(0.195312,0,0,-0.195312,0,100.390625)">
<stop offset="0" style="stop-color:rgb(16.470588%,96.078431%,59.607843%);stop-opacity:1;"/>
<stop offset="1" style="stop-color:rgb(0%,61.960784%,99.215686%);stop-opacity:1;"/>
</linearGradient>
</defs>
<g id="surface1">
<path style=" stroke:none;fill-rule:nonzero;fill:url(#linear0);" d="M 50 100 C 36.644531 100 24.089844 94.800781 14.644531 85.355469 C 5.199219 75.910156 0 63.355469 0 50 C 0 36.644531 5.199219 24.089844 14.644531 14.644531 C 24.089844 5.199219 36.644531 0 50 0 C 63.355469 0 75.910156 5.199219 85.355469 14.644531 C 94.800781 24.089844 100 36.644531 100 50 C 100 63.355469 94.800781 75.910156 85.355469 85.355469 C 75.910156 94.800781 63.355469 100 50 100 Z M 50 7.8125 C 26.738281 7.8125 7.8125 26.738281 7.8125 50 C 7.8125 73.261719 26.738281 92.1875 50 92.1875 C 73.261719 92.1875 92.1875 73.261719 92.1875 50 C 92.1875 26.738281 73.261719 7.8125 50 7.8125 Z M 32.226562 76.28125 L 32.226562 23.71875 L 77.957031 50 Z M 40.039062 37.21875 L 40.039062 62.78125 L 62.277344 50 Z M 40.039062 37.21875 "/>
</g>
</svg>